Coordinates
nRows=236
nColumns=2
inDegrees=yes
endheader
time	ankle_angle_r	
6.3871	 -0.457797	
6.42036	 -0.441400	
6.45363	 -0.431387	
6.4869	 -0.428048	
6.52016	 -0.430060	
6.55343	 -0.435506	
6.58669	 -0.441392	
6.61996	 -0.447008	
6.65323	 -0.453645	
6.68649	 -0.462745	
6.71976	 -0.474360	
6.75302	 -0.484996	
6.78629	 -0.492176	
6.81956	 -0.497827	
6.85282	 -0.502499	
6.88609	 -0.505693	
6.91935	 -0.508474	
6.95262	 -0.510675	
6.98589	 -0.514189	
7.01915	 -0.520862	
7.05242	 -0.525228	
7.08569	 -0.523292	
7.11895	 -0.519352	
7.15222	 -0.518094	
7.18548	 -0.521090	
7.21875	 -0.525830	
7.25202	 -0.527072	
7.28528	 -0.526887	
7.31855	 -0.531514	
7.35181	 -0.538477	
7.38508	 -0.541986	
7.41835	 -0.540657	
7.45161	 -0.534987	
7.48488	 -0.530313	
7.51815	 -0.533335	
7.55141	 -0.540904	
7.58468	 -0.545938	
7.61794	 -0.546995	
7.65121	 -0.545222	
7.68448	 -0.543221	
7.71774	 -0.543313	
7.75101	 -0.543261	
7.78427	 -0.541709	
7.81754	 -0.540975	
7.85081	 -0.541320	
7.88407	 -0.541856	
7.91734	 -0.542897	
7.9506	 -0.544053	
7.98387	 -0.545139	
8.01714	 -0.545163	
8.0504	 -0.541320	
8.08367	 -0.535454	
8.11694	 -0.533524	
8.1502	 -0.535868	
8.18347	 -0.538429	
8.21673	 -0.539125	
8.25	 -0.537023	
8.28327	 -0.532885	
8.31653	 -0.529026	
8.3498	 -0.526143	
8.38306	 -0.523416	
8.41633	 -0.519287	
8.4496	 -0.515129	
8.48286	 -0.515200	
8.51613	 -0.517207	
8.5494	 -0.515368	
8.58266	 -0.510361	
8.61593	 -0.503388	
8.64919	 -0.493516	
8.68246	 -0.484173	
8.71573	 -0.478618	
8.74899	 -0.476959	
8.78226	 -0.479840	
8.81552	 -0.484037	
8.84879	 -0.484574	
8.88206	 -0.483256	
8.91532	 -0.483519	
8.94859	 -0.485351	
8.98185	 -0.487852	
9.01512	 -0.488161	
9.04839	 -0.484845	
9.08165	 -0.481871	
9.11492	 -0.481172	
9.14819	 -0.480878	
9.18145	 -0.481403	
9.21472	 -0.482217	
9.24798	 -0.480980	
9.28125	 -0.479548	
9.31452	 -0.479662	
9.34778	 -0.479015	
9.38105	 -0.477901	
9.41431	 -0.478434	
9.44758	 -0.479065	
9.48085	 -0.478020	
9.51411	 -0.475343	
9.54738	 -0.472645	
9.58065	 -0.474476	
9.61391	 -0.481812	
9.64718	 -0.489681	
9.68044	 -0.495386	
9.71371	 -0.498025	
9.74698	 -0.496272	
9.78024	 -0.492947	
9.81351	 -0.491831	
9.84677	 -0.492414	
9.88004	 -0.492160	
9.91331	 -0.490571	
9.94657	 -0.490229	
9.97984	 -0.491194	
10.0131	 -0.490231	
10.0464	 -0.489771	
10.0796	 -0.493570	
10.1129	 -0.497407	
10.1462	 -0.498071	
10.1794	 -0.498363	
10.2127	 -0.500178	
10.246	 -0.504379	
10.2792	 -0.509938	
10.3125	 -0.512720	
10.3458	 -0.512107	
10.379	 -0.509973	
10.4123	 -0.505165	
10.4456	 -0.498704	
10.4788	 -0.495083	
10.5121	 -0.495791	
10.5454	 -0.500328	
10.5786	 -0.506949	
10.6119	 -0.510270	
10.6452	 -0.507602	
10.6784	 -0.502407	
10.7117	 -0.498918	
10.745	 -0.500378	
10.7782	 -0.504765	
10.8115	 -0.503691	
10.8448	 -0.495493	
10.878	 -0.486443	
10.9113	 -0.479090	
10.9446	 -0.474787	
10.9778	 -0.476839	
11.0111	 -0.484182	
11.0444	 -0.493258	
11.0776	 -0.501787	
11.1109	 -0.507595	
11.1442	 -0.511890	
11.1774	 -0.517805	
11.2107	 -0.523638	
11.244	 -0.526063	
11.2772	 -0.525089	
11.3105	 -0.523294	
11.3437	 -0.524976	
11.377	 -0.530449	
11.4103	 -0.533268	
11.4435	 -0.529487	
11.4768	 -0.521515	
11.5101	 -0.514571	
11.5433	 -0.514010	
11.5766	 -0.517340	
11.6099	 -0.515593	
11.6431	 -0.507290	
11.6764	 -0.498104	
11.7097	 -0.492718	
11.7429	 -0.493095	
11.7762	 -0.496157	
11.8095	 -0.497582	
11.8427	 -0.497715	
11.876	 -0.497219	
11.9093	 -0.495905	
11.9425	 -0.495470	
11.9758	 -0.494837	
12.0091	 -0.492017	
12.0423	 -0.489394	
12.0756	 -0.486662	
12.1089	 -0.480696	
12.1421	 -0.474420	
12.1754	 -0.472369	
12.2087	 -0.475309	
12.2419	 -0.483018	
12.2752	 -0.491116	
12.3085	 -0.492682	
12.3417	 -0.488937	
12.375	 -0.485774	
12.4083	 -0.484575	
12.4415	 -0.484675	
12.4748	 -0.483960	
12.5081	 -0.480039	
12.5413	 -0.476421	
12.5746	 -0.477467	
12.6079	 -0.482240	
12.6411	 -0.488132	
12.6744	 -0.490879	
12.7077	 -0.487712	
12.7409	 -0.483177	
12.7742	 -0.481265	
12.8075	 -0.481806	
12.8407	 -0.486029	
12.874	 -0.492320	
12.9073	 -0.496394	
12.9405	 -0.499124	
12.9738	 -0.502536	
13.0071	 -0.504625	
13.0403	 -0.503137	
13.0736	 -0.499165	
13.1069	 -0.498013	
13.1401	 -0.502874	
13.1734	 -0.508653	
13.2067	 -0.510693	
13.2399	 -0.510401	
13.2732	 -0.509145	
13.3065	 -0.508439	
13.3397	 -0.509716	
13.373	 -0.511110	
13.4062	 -0.513503	
13.4395	 -0.520912	
13.4728	 -0.531354	
13.506	 -0.538671	
13.5393	 -0.538745	
13.5726	 -0.530658	
13.6058	 -0.520230	
13.6391	 -0.516024	
13.6724	 -0.519387	
13.7056	 -0.526664	
13.7389	 -0.534005	
13.7722	 -0.537979	
13.8054	 -0.538515	
13.8387	 -0.536675	
13.872	 -0.532639	
13.9052	 -0.529818	
13.9385	 -0.530129	
13.9718	 -0.529215	
14.005	 -0.525036	
14.0383	 -0.520431	
14.0716	 -0.516760	
14.1048	 -0.514119	
14.1381	 -0.510114	
14.1714	 -0.497194	
14.2046	 -0.473077	
